<svg viewBox="2175 500.2516 367.3162 31.9968" width="5000" height="435.54844572605293" xmlns="http://www.w3.org/2000/svg" xmlns:xlink="http://www.w3.org/1999/xlink" preserveAspectRatio="none"><defs></defs><style>.companyName {fill:#EBE7D9;fill-opacity:1;}.icon3 {fill:#F55139;fill-opacity:1;}.icon3-str {stroke:#F55139;stroke-opacity:1;}</style><g opacity="1" transform="rotate(0 2215.0118 500.2516)">
<svg width="327.3044" height="31.9968" x="2215.0118" y="500.2516" version="1.1" preserveAspectRatio="none" viewBox="2.04 -28.48 296.24 28.96">
  <g transform="matrix(1 0 0 1 0 0)" class="companyName"><path id="id-D6z1nYkh10" d="M15.88 0.48Q11.68 0.48 8.54-1.04Q5.40-2.56 3.72-5.32Q2.04-8.08 2.04-11.68L2.04-11.68Q2.04-16.44 4.22-20.26Q6.40-24.08 10.36-26.28Q14.32-28.48 19.44-28.48L19.44-28.48Q23.20-28.48 26.08-27.20Q28.96-25.92 30.44-23.52L30.44-23.52L25.76-19.68Q23.52-22.96 19-22.96L19-22.96Q15.92-22.96 13.56-21.52Q11.20-20.08 9.90-17.60Q8.60-15.12 8.60-12.08L8.60-12.08Q8.60-8.84 10.66-6.94Q12.72-5.04 16.44-5.04L16.44-5.04Q20.88-5.04 23.88-8.28L23.88-8.28L27.72-4.36Q23.56 0.48 15.88 0.48L15.88 0.48Z M44.40 0.48Q40.20 0.48 37.12-1.04Q34.04-2.56 32.40-5.32Q30.76-8.08 30.76-11.68L30.76-11.68Q30.76-16.44 32.94-20.26Q35.12-24.08 39.06-26.28Q43-28.48 48.08-28.48L48.08-28.48Q52.28-28.48 55.36-26.96Q58.44-25.44 60.08-22.68Q61.72-19.92 61.72-16.32L61.72-16.32Q61.72-11.56 59.54-7.74Q57.36-3.92 53.42-1.72Q49.48 0.48 44.40 0.48L44.40 0.48ZM44.96-5.04Q48.04-5.04 50.36-6.52Q52.68-8 53.92-10.48Q55.16-12.96 55.16-15.96L55.16-15.96Q55.16-19.16 53.16-21.06Q51.16-22.96 47.52-22.96L47.52-22.96Q44.44-22.96 42.12-21.48Q39.80-20 38.56-17.52Q37.32-15.04 37.32-12.04L37.32-12.04Q37.32-8.84 39.32-6.94Q41.32-5.04 44.96-5.04L44.96-5.04Z M84.48 0L83.16-6L70.12-6L66.48 0L59.56 0L77.68-28L84.08-28L90.96 0L84.48 0ZM73.12-10.92L82.08-10.92L79.72-21.72L73.12-10.92Z M108.20 0.48Q104 0.48 100.86-1.04Q97.72-2.56 96.04-5.32Q94.36-8.08 94.36-11.68L94.36-11.68Q94.36-16.44 96.54-20.26Q98.72-24.08 102.68-26.28Q106.64-28.48 111.76-28.48L111.76-28.48Q115.52-28.48 118.40-27.20Q121.28-25.92 122.76-23.52L122.76-23.52L118.08-19.68Q115.84-22.96 111.32-22.96L111.32-22.96Q108.24-22.96 105.88-21.52Q103.52-20.08 102.22-17.60Q100.92-15.12 100.92-12.08L100.92-12.08Q100.92-8.84 102.98-6.94Q105.04-5.04 108.76-5.04L108.76-5.04Q113.20-5.04 116.20-8.28L116.20-8.28L120.04-4.36Q115.88 0.48 108.20 0.48L108.20 0.48Z M147.60-28L154.08-28L148.48 0L142 0L144.28-11.40L131.60-11.40L129.32 0L122.80 0L128.40-28L134.92-28L132.72-17L145.40-17L147.60-28Z M196.48-28L202.92-28L188.12 0L181.20 0L178.76-18.84L168.64 0L161.68 0L158.12-28L164.52-28L167.00-8.32L177.52-28L183.52-28L185.92-8.16L196.48-28Z M225.68-28L232.16-28L226.56 0L220.08 0L222.36-11.40L209.68-11.40L207.40 0L200.88 0L206.48-28L213-28L210.80-17L223.48-17L225.68-28Z M233.20 0L238.80-28L245.32-28L239.72 0L233.20 0Z M252.12 0L256.64-22.72L247.68-22.72L248.76-28L273.16-28L272.08-22.72L263.16-22.72L258.60 0L252.12 0Z M277.24 0L281.76-22.72L272.80-22.72L273.88-28L298.28-28L297.20-22.72L288.28-22.72L283.72 0L277.24 0Z"/></g>
</svg>
</g><g opacity="1" transform="rotate(0 2175 500.2516)">
<svg width="40.0118" height="31.9968" x="2175" y="500.2516" version="1.1" preserveAspectRatio="none" viewBox="-4.6 -33.68 47.12 37.68">
  <g transform="matrix(1 0 0 1 0 0)" class="icon3"><path id="id-hTdFi603-2" d="M-4.60 4L15.88-33.68L24.12-33.68L3.64 4L-4.60 4Z M13.80 4L34.28-33.68L42.52-33.68L22.04 4L13.80 4Z"/></g>
</svg>
</g></svg>